<svg width="145" height="24" viewBox="0 0 145 24" fill="none" xmlns="http://www.w3.org/2000/svg">
<path d="M0.828 19H8.622V15.49H8.172C8.226 16.912 7.758 17.686 6.984 18.01C6.408 18.244 6.012 18.28 5.598 18.28C5.454 18.28 5.31 18.28 5.166 18.28H1.314C1.818 16.498 3.204 15.454 4.914 14.212C7.506 12.34 8.442 10.54 8.442 9.37C8.442 6.94 6.57 6.112 4.662 6.112C2.124 6.112 0.9 7.714 0.9 8.74C0.9 9.226 1.224 9.622 1.746 9.622C2.358 9.622 2.61 9.154 2.61 8.812C2.61 8.542 2.556 8.308 2.286 8.092C2.556 7.372 3.528 6.562 4.662 6.562C6.39 6.562 6.894 7.858 6.894 9.082C6.894 10.288 5.94 12.016 4.374 13.51C2.592 15.256 0.828 16.444 0.828 19ZM10.5345 18.136C10.5345 18.694 11.0025 19.18 11.5965 19.18C12.1725 19.18 12.6405 18.694 12.6405 18.136C12.6405 17.542 12.1725 17.074 11.5965 17.074C11.0025 17.074 10.5345 17.542 10.5345 18.136ZM18.5767 6.4V9.55H19.1347C19.2067 7.444 20.1067 6.976 21.6187 6.85H23.1127C22.3027 7.282 22.2127 7.606 22.2127 8.488V16.192C22.2127 17.47 22.3387 18.226 20.9887 18.55V19H25.0387V17.812C24.4087 18.082 23.7067 18.262 22.8967 18.388C23.8147 18.172 23.7967 17.524 23.7967 16.858V8.596C23.8147 8.074 23.8147 7.732 24.0487 7.39C24.2827 7.048 24.6967 6.85 25.0927 6.85H25.2187C26.6767 6.85 27.6487 7.516 27.6487 9.55H28.2427V6.4H18.5767ZM32.8544 19.288C35.3924 19.288 37.3904 17.074 37.3904 14.284C37.3904 11.674 35.3564 9.712 32.8544 9.712C30.2984 9.712 28.3364 11.872 28.3364 14.716C28.3364 17.38 30.3344 19.288 32.8544 19.288ZM30.1724 14.194C30.1724 12.574 30.8924 10.162 32.8544 10.162C33.8084 10.162 34.4924 10.936 34.9244 11.782C35.3564 12.646 35.5544 13.726 35.5544 14.806C35.5544 16.48 34.9064 18.838 32.8544 18.838C32.2244 18.838 31.6844 18.586 31.2704 18.064C30.4064 17.038 30.1724 15.688 30.1724 14.194ZM40.3944 10.612C39.6924 11.098 39.7644 11.53 39.7644 12.016V20.782C39.7644 22.096 39.8904 22.816 38.5224 23.14V23.59H42.3924V22.402C41.7624 22.672 41.1144 22.852 40.4304 22.978C41.3484 22.636 41.3124 22.114 41.3124 21.448V18.694C41.9424 19.072 42.6264 19.288 43.4724 19.288C45.9024 19.288 48.0624 17.236 48.0624 14.176C48.0624 11.404 46.1724 9.712 44.1024 9.712C43.0944 9.712 42.0324 10.144 41.3124 10.792V10H38.5224V11.188C39.1344 10.954 39.7464 10.738 40.3944 10.612ZM41.3124 11.044C41.8164 10.576 42.6984 10.216 43.4004 10.216C45.6324 10.216 46.2084 12.646 46.2084 14.464C46.2084 16.768 45.1644 18.658 43.4184 18.658C42.6264 18.658 41.8884 18.406 41.3124 18.046V11.044ZM60.1275 19.288C61.6035 19.288 63.6555 18.802 65.2215 16.66L64.8795 16.372C63.7455 17.722 62.1435 18.424 60.5775 18.424C57.5175 18.424 55.7715 15.976 55.7715 12.628C55.7715 9.118 57.8415 6.832 60.2535 6.832C62.3235 6.832 64.1775 8.002 64.3215 10.36H64.7715V6.238H63.5835C63.8355 6.76 63.9795 7.246 64.1055 7.804C63.2055 6.562 61.7655 5.986 60.2535 5.986C56.4015 5.986 54.0075 9.262 54.0075 12.898C54.0075 16.498 56.5095 19.288 60.1275 19.288ZM66.0354 6.652C66.5394 6.4 67.2594 6.184 67.7994 6.022C67.2414 6.508 67.2774 6.94 67.2774 7.426V16.192C67.2774 17.506 67.4034 18.226 66.0354 18.55V19H69.9054V17.812C69.2754 18.082 68.6274 18.262 67.9434 18.388C68.8614 18.1 68.8434 17.524 68.8434 16.858C68.8434 9.226 68.8434 5.41 68.8434 5.41H66.0354V6.652ZM70.9568 17.146C70.9568 18.352 71.8388 19.288 73.6568 19.288C74.7188 19.288 75.6728 18.784 76.4468 18.01V19H79.1648V17.812C78.3908 18.154 77.6708 18.352 77.0408 18.388C77.9588 18.172 77.9948 17.542 77.9948 16.876V13.042C78.0128 10.864 76.9148 9.676 74.7188 9.676C74.0168 9.676 73.4588 9.802 73.0448 9.982C72.1808 10.36 71.4968 11.062 71.4968 11.872C71.4968 12.286 71.7668 12.646 72.2528 12.7C72.6848 12.7 73.0268 12.448 73.0808 11.998C73.0988 11.782 73.0448 11.512 72.8468 11.314C73.1888 10.63 73.9628 10.198 74.7188 10.198C76.2848 10.198 76.4468 11.746 76.4468 12.862V13.978C74.5748 13.978 70.9568 14.68 70.9568 17.146ZM72.6668 16.93C72.6308 15.148 75.0068 14.338 76.4468 14.23V17.2C75.7268 17.866 75.0608 18.262 74.0708 18.262C73.3328 18.262 72.7208 17.812 72.6668 16.93ZM80.3645 12.322C80.3645 14.14 82.0025 14.716 83.4425 15.274C84.5585 15.706 85.5665 16.174 85.5665 17.164C85.5665 18.136 84.5045 18.586 83.5865 18.586C82.1645 18.586 81.1025 17.524 80.8145 16.03H80.3645V19.126H81.5525C81.1925 18.622 80.9765 18.28 80.8685 17.65C81.6065 18.946 82.7045 19.288 83.9105 19.288C85.4405 19.288 87.0245 18.46 87.0245 16.642C87.0245 15.022 85.5845 14.41 84.2165 13.834C82.9565 13.33 81.7685 12.862 81.7685 11.746C81.7685 11.026 82.4345 10.378 83.5325 10.378C85.0985 10.378 85.7825 11.35 85.9445 12.952H86.3945V10H85.2065C85.6025 10.396 85.7645 10.684 85.8545 11.242C85.5485 10.558 85.1525 10.126 84.6665 9.964C84.1805 9.802 83.7665 9.712 83.4425 9.712C81.0125 9.712 80.3645 11.314 80.3645 12.322ZM88.5165 12.322C88.5165 14.14 90.1545 14.716 91.5945 15.274C92.7105 15.706 93.7185 16.174 93.7185 17.164C93.7185 18.136 92.6565 18.586 91.7385 18.586C90.3165 18.586 89.2545 17.524 88.9665 16.03H88.5165V19.126H89.7045C89.3445 18.622 89.1285 18.28 89.0205 17.65C89.7585 18.946 90.8565 19.288 92.0625 19.288C93.5925 19.288 95.1765 18.46 95.1765 16.642C95.1765 15.022 93.7365 14.41 92.3685 13.834C91.1085 13.33 89.9205 12.862 89.9205 11.746C89.9205 11.026 90.5865 10.378 91.6845 10.378C93.2505 10.378 93.9345 11.35 94.0965 12.952H94.5465V10H93.3585C93.7545 10.396 93.9165 10.684 94.0065 11.242C93.7005 10.558 93.3045 10.126 92.8185 9.964C92.3325 9.802 91.9185 9.712 91.5945 9.712C89.1645 9.712 88.5165 11.314 88.5165 12.322ZM100.677 6.4V9.55H101.235C101.307 7.444 102.207 6.976 103.719 6.85H105.213C104.403 7.282 104.313 7.606 104.313 8.488V16.192C104.313 17.47 104.439 18.226 103.089 18.55V19H107.139V17.812C106.509 18.082 105.807 18.262 104.997 18.388C105.915 18.172 105.897 17.524 105.897 16.858V8.596C105.915 8.074 105.915 7.732 106.149 7.39C106.383 7.048 106.797 6.85 107.193 6.85H107.319C108.777 6.85 109.749 7.516 109.749 9.55H110.343V6.4H100.677ZM110.455 14.518C110.455 17.434 112.363 19.288 114.847 19.288C116.521 19.288 117.691 18.478 118.753 17.236L118.411 16.948C117.601 17.65 116.449 18.37 115.279 18.37C113.173 18.37 112.039 16.462 112.255 13.294H118.645C118.645 12.484 118.249 11.332 117.565 10.684C116.899 10.036 115.999 9.712 114.991 9.712C112.291 9.712 110.455 11.998 110.455 14.518ZM115.009 10.162C116.179 10.162 116.863 11.062 117.115 12.106C117.259 12.682 117.565 12.988 118.051 13.042H112.291C112.669 11.188 113.623 10.162 115.009 10.162ZM119.851 17.146C119.851 18.352 120.733 19.288 122.551 19.288C123.613 19.288 124.567 18.784 125.341 18.01V19H128.059V17.812C127.285 18.154 126.565 18.352 125.935 18.388C126.853 18.172 126.889 17.542 126.889 16.876V13.042C126.907 10.864 125.809 9.676 123.613 9.676C122.911 9.676 122.353 9.802 121.939 9.982C121.075 10.36 120.391 11.062 120.391 11.872C120.391 12.286 120.661 12.646 121.147 12.7C121.579 12.7 121.921 12.448 121.975 11.998C121.993 11.782 121.939 11.512 121.741 11.314C122.083 10.63 122.857 10.198 123.613 10.198C125.179 10.198 125.341 11.746 125.341 12.862V13.978C123.469 13.978 119.851 14.68 119.851 17.146ZM121.561 16.93C121.525 15.148 123.901 14.338 125.341 14.23V17.2C124.621 17.866 123.955 18.262 122.965 18.262C122.227 18.262 121.615 17.812 121.561 16.93ZM128.971 18.55V19H132.841V17.812C132.211 18.082 131.563 18.262 130.879 18.388C131.689 18.154 131.761 17.758 131.761 17.092V11.08C132.247 10.63 133.093 10.252 133.759 10.252C135.415 10.252 135.739 11.674 135.739 13.744V16.192C135.739 16.606 135.739 16.984 135.721 17.308C135.685 17.956 135.595 18.334 134.677 18.55V19H138.187V17.812C137.665 18.118 137.071 18.316 136.405 18.388C137.269 18.172 137.287 17.704 137.269 16.858V12.862C137.269 12.376 137.269 11.872 136.927 11.08C137.575 10.594 138.331 10.216 139.159 10.216C140.689 10.216 141.265 11.71 141.265 13.744V16.192C141.265 17.488 141.391 18.226 140.023 18.55V19H143.893V17.812C143.263 18.082 142.615 18.262 141.931 18.388C142.777 18.154 142.831 17.596 142.813 16.858V13.744C142.867 10.882 141.913 9.712 139.825 9.712C138.799 9.712 137.647 10.252 136.837 10.918C136.387 10.18 135.577 9.712 134.371 9.712C133.435 9.712 132.427 10.126 131.761 10.828V10H128.971V11.188C129.583 10.954 130.195 10.738 130.843 10.612C130.141 11.098 130.213 11.53 130.213 12.016V16.192C130.213 17.506 130.339 18.226 128.971 18.55Z" fill="#AAAAAA"/>
</svg>
