<svg width="185" height="24" viewBox="0 0 185 24" fill="none" xmlns="http://www.w3.org/2000/svg">
<path d="M4.59 19.288C6.966 19.288 9.126 18.118 9.126 15.67C9.126 13.798 7.866 12.412 5.436 12.322C7.668 11.638 8.406 10.324 8.406 9.244C8.406 6.958 6.714 6.112 4.77 6.112C2.286 6.112 1.062 7.642 1.098 8.704C1.116 9.136 1.386 9.514 1.89 9.532C2.466 9.532 2.7 9.118 2.7 8.74C2.7 8.47 2.628 8.326 2.412 8.11C2.502 7.444 3.348 6.562 4.716 6.562C6.048 6.562 7.074 7.57 7.002 9.172C6.984 9.55 6.894 9.982 6.732 10.468C6.39 11.476 5.634 12.196 3.96 12.196H3.42V12.448H3.96C6.21 12.448 7.488 13.33 7.524 15.76C7.578 17.632 6.282 18.838 4.572 18.838C3.33 18.838 2.304 18.262 2.232 17.38C2.394 17.236 2.466 17.074 2.466 16.858C2.466 16.588 2.34 15.994 1.602 16.012C1.08 16.03 0.792 16.462 0.792 16.84C0.792 17.902 1.98 19.288 4.59 19.288ZM10.9915 18.136C10.9915 18.694 11.4595 19.18 12.0535 19.18C12.6295 19.18 13.0975 18.694 13.0975 18.136C13.0975 17.542 12.6295 17.074 12.0535 17.074C11.4595 17.074 10.9915 17.542 10.9915 18.136ZM25.5857 19.288C27.0617 19.288 29.1137 18.802 30.6797 16.66L30.3377 16.372C29.2037 17.722 27.6017 18.424 26.0357 18.424C22.9757 18.424 21.2297 15.976 21.2297 12.628C21.2297 9.118 23.2997 6.832 25.7117 6.832C27.7817 6.832 29.6357 8.002 29.7797 10.36H30.2297V6.238H29.0417C29.2937 6.76 29.4377 7.246 29.5637 7.804C28.6637 6.562 27.2237 5.986 25.7117 5.986C21.8597 5.986 19.4657 9.262 19.4657 12.898C19.4657 16.498 21.9677 19.288 25.5857 19.288ZM36.2997 19.288C38.8377 19.288 40.8357 17.074 40.8357 14.284C40.8357 11.674 38.8017 9.712 36.2997 9.712C33.7437 9.712 31.7817 11.872 31.7817 14.716C31.7817 17.38 33.7797 19.288 36.2997 19.288ZM33.6177 14.194C33.6177 12.574 34.3377 10.162 36.2997 10.162C37.2537 10.162 37.9377 10.936 38.3697 11.782C38.8017 12.646 38.9997 13.726 38.9997 14.806C38.9997 16.48 38.3517 18.838 36.2997 18.838C35.6697 18.838 35.1297 18.586 34.7157 18.064C33.8517 17.038 33.6177 15.688 33.6177 14.194ZM42.0937 18.46V19H45.9637V17.812C45.3337 18.082 44.6857 18.262 44.0017 18.388C44.9197 18.172 44.9017 17.524 44.9017 16.858V11.854C45.3157 11.296 45.9817 10.468 46.7557 10.468C46.9717 10.468 47.2057 10.54 47.4397 10.702C47.3677 11.224 47.7277 11.656 48.2497 11.71C48.7537 11.71 49.1677 11.35 49.1677 10.828C49.1677 10.036 48.5557 9.712 47.8897 9.712C46.6297 9.712 45.3697 10.72 44.9017 11.602V10H42.0937V11.188C42.7057 10.954 43.3177 10.738 43.9657 10.612C43.2637 11.098 43.3357 11.53 43.3357 12.016V16.192C43.3357 17.47 43.4617 18.316 42.0937 18.46ZM51.4995 10.612C50.7975 11.098 50.8695 11.53 50.8695 12.016V20.782C50.8695 22.096 50.9955 22.816 49.6275 23.14V23.59H53.4975V22.402C52.8675 22.672 52.2195 22.852 51.5355 22.978C52.4535 22.636 52.4175 22.114 52.4175 21.448V18.694C53.0475 19.072 53.7315 19.288 54.5775 19.288C57.0075 19.288 59.1675 17.236 59.1675 14.176C59.1675 11.404 57.2775 9.712 55.2075 9.712C54.1995 9.712 53.1375 10.144 52.4175 10.792V10H49.6275V11.188C50.2395 10.954 50.8515 10.738 51.4995 10.612ZM52.4175 11.044C52.9215 10.576 53.8035 10.216 54.5055 10.216C56.7375 10.216 57.3135 12.646 57.3135 14.464C57.3135 16.768 56.2695 18.658 54.5235 18.658C53.7315 18.658 52.9935 18.406 52.4175 18.046V11.044ZM64.9921 19.288C67.5301 19.288 69.5281 17.074 69.5281 14.284C69.5281 11.674 67.4941 9.712 64.9921 9.712C62.4361 9.712 60.4741 11.872 60.4741 14.716C60.4741 17.38 62.4721 19.288 64.9921 19.288ZM62.3101 14.194C62.3101 12.574 63.0301 10.162 64.9921 10.162C65.9461 10.162 66.6301 10.936 67.0621 11.782C67.4941 12.646 67.6921 13.726 67.6921 14.806C67.6921 16.48 67.0441 18.838 64.9921 18.838C64.3621 18.838 63.8221 18.586 63.4081 18.064C62.5441 17.038 62.3101 15.688 62.3101 14.194ZM70.7861 18.46V19H74.6561V17.812C74.0261 18.082 73.3781 18.262 72.6941 18.388C73.6121 18.172 73.5941 17.524 73.5941 16.858V11.854C74.0081 11.296 74.6741 10.468 75.4481 10.468C75.6641 10.468 75.8981 10.54 76.1321 10.702C76.0601 11.224 76.4201 11.656 76.9421 11.71C77.4461 11.71 77.8601 11.35 77.8601 10.828C77.8601 10.036 77.2481 9.712 76.5821 9.712C75.3221 9.712 74.0621 10.72 73.5941 11.602V10H70.7861V11.188C71.3981 10.954 72.0101 10.738 72.6581 10.612C71.9561 11.098 72.0281 11.53 72.0281 12.016V16.192C72.0281 17.47 72.1541 18.316 70.7861 18.46ZM78.2869 17.146C78.2869 18.352 79.1689 19.288 80.9869 19.288C82.0489 19.288 83.0029 18.784 83.7769 18.01V19H86.4949V17.812C85.7209 18.154 85.0009 18.352 84.3709 18.388C85.2889 18.172 85.3249 17.542 85.3249 16.876V13.042C85.3429 10.864 84.2449 9.676 82.0489 9.676C81.3469 9.676 80.7889 9.802 80.3749 9.982C79.5109 10.36 78.8269 11.062 78.8269 11.872C78.8269 12.286 79.0969 12.646 79.5829 12.7C80.0149 12.7 80.3569 12.448 80.4109 11.998C80.4289 11.782 80.3749 11.512 80.1769 11.314C80.5189 10.63 81.2929 10.198 82.0489 10.198C83.6149 10.198 83.7769 11.746 83.7769 12.862V13.978C81.9049 13.978 78.2869 14.68 78.2869 17.146ZM79.9969 16.93C79.9609 15.148 82.3369 14.338 83.7769 14.23V17.2C83.0569 17.866 82.3909 18.262 81.4009 18.262C80.6629 18.262 80.0509 17.812 79.9969 16.93ZM88.8855 6.022C88.1835 6.508 88.2555 6.94 88.2555 7.426V10H87.0135V10.252H88.2555V15.994C88.2015 17.524 88.5435 18.028 89.0115 18.514C89.5155 19.036 90.1455 19.288 90.8655 19.288C91.9995 19.288 92.8635 18.532 93.2595 17.488L92.8995 17.218C92.6475 17.956 92.0355 18.55 91.2255 18.55C90.7755 18.55 90.4335 18.388 90.1995 18.1C89.7315 17.524 89.8215 16.822 89.8395 15.742V10.252H92.8635V10H89.8395V5.41H87.0135V6.598C87.6255 6.364 88.2375 6.148 88.8855 6.022ZM93.9088 14.518C93.9088 17.434 95.8168 19.288 98.3008 19.288C99.9748 19.288 101.145 18.478 102.207 17.236L101.865 16.948C101.055 17.65 99.9028 18.37 98.7328 18.37C96.6268 18.37 95.4928 16.462 95.7088 13.294H102.099C102.099 12.484 101.703 11.332 101.019 10.684C100.353 10.036 99.4528 9.712 98.4448 9.712C95.7448 9.712 93.9088 11.998 93.9088 14.518ZM98.4628 10.162C99.6328 10.162 100.317 11.062 100.569 12.106C100.713 12.682 101.019 12.988 101.505 13.042H95.7448C96.1228 11.188 97.0768 10.162 98.4628 10.162ZM108.321 15.31V19.144H109.509C109.185 18.568 109.095 18.262 109.023 17.596C109.833 18.928 111.183 19.288 112.677 19.288C115.053 19.288 116.691 17.848 116.691 15.868C116.691 13.564 114.675 12.7 112.857 11.854C111.273 11.116 109.923 10.468 109.833 8.938C109.761 7.714 110.715 6.832 112.209 6.832C114.459 6.832 115.413 8.29 115.557 10.36H115.989V6.256H114.801C115.089 6.796 115.215 7.192 115.287 7.804C114.585 6.742 113.307 6.112 112.011 6.112C109.077 6.112 108.357 8.056 108.357 9.28C108.357 11.566 110.337 12.43 112.137 13.24C113.667 13.96 115.143 14.662 115.143 16.282C115.143 17.668 113.991 18.712 112.587 18.712C111.633 18.712 110.787 18.388 110.013 17.794C109.239 17.2 108.825 16.372 108.771 15.31H108.321ZM122.566 19.288C125.104 19.288 127.102 17.074 127.102 14.284C127.102 11.674 125.068 9.712 122.566 9.712C120.01 9.712 118.048 11.872 118.048 14.716C118.048 17.38 120.046 19.288 122.566 19.288ZM119.884 14.194C119.884 12.574 120.604 10.162 122.566 10.162C123.52 10.162 124.204 10.936 124.636 11.782C125.068 12.646 125.266 13.726 125.266 14.806C125.266 16.48 124.618 18.838 122.566 18.838C121.936 18.838 121.396 18.586 120.982 18.064C120.118 17.038 119.884 15.688 119.884 14.194ZM128.162 6.652C128.666 6.4 129.386 6.184 129.926 6.022C129.368 6.508 129.404 6.94 129.404 7.426V16.192C129.404 17.506 129.53 18.226 128.162 18.55V19H132.032V17.812C131.402 18.082 130.754 18.262 130.07 18.388C130.988 18.1 130.97 17.524 130.97 16.858C130.97 9.226 130.97 5.41 130.97 5.41H128.162V6.652ZM134.812 10.612C134.02 11.098 134.11 11.908 134.11 12.34V15.364C134.11 18.334 135.118 19.288 137.062 19.288C138.124 19.288 139.24 18.712 139.942 17.974V19H142.696V17.812C142.084 18.082 141.382 18.262 140.572 18.388C141.526 18.118 141.472 17.614 141.472 16.624V10H138.7V11.224C139.294 10.936 139.924 10.738 140.572 10.612C139.87 10.918 139.942 11.368 139.942 12.538V17.722C139.546 18.064 138.592 18.568 137.71 18.568C137.656 18.568 137.584 18.55 137.512 18.55C136.09 18.55 135.694 17.38 135.694 15.31V10H132.94V11.188C133.552 10.954 134.164 10.738 134.812 10.612ZM145.282 6.022C144.58 6.508 144.652 6.94 144.652 7.426V10H143.41V10.252H144.652V15.994C144.598 17.524 144.94 18.028 145.408 18.514C145.912 19.036 146.542 19.288 147.262 19.288C148.396 19.288 149.26 18.532 149.656 17.488L149.296 17.218C149.044 17.956 148.432 18.55 147.622 18.55C147.172 18.55 146.83 18.388 146.596 18.1C146.128 17.524 146.218 16.822 146.236 15.742V10.252H149.26V10H146.236V5.41H143.41V6.598C144.022 6.364 144.634 6.148 145.282 6.022ZM150.197 10V11.188C150.809 10.954 151.421 10.738 152.069 10.612C151.367 11.098 151.439 11.53 151.439 12.016V16.192C151.439 17.506 151.565 18.226 150.197 18.55V19H154.067V17.812C153.437 18.082 152.789 18.262 152.105 18.388C153.041 18.046 152.987 17.56 152.987 16.858V10H150.197ZM151.133 6.976C151.133 7.516 151.565 7.948 152.105 7.948C152.627 7.948 153.077 7.516 153.077 6.976C153.077 6.454 152.627 6.004 152.105 6.004C151.565 6.004 151.133 6.454 151.133 6.976ZM159.74 19.288C162.278 19.288 164.276 17.074 164.276 14.284C164.276 11.674 162.242 9.712 159.74 9.712C157.184 9.712 155.222 11.872 155.222 14.716C155.222 17.38 157.22 19.288 159.74 19.288ZM157.058 14.194C157.058 12.574 157.778 10.162 159.74 10.162C160.694 10.162 161.378 10.936 161.81 11.782C162.242 12.646 162.44 13.726 162.44 14.806C162.44 16.48 161.792 18.838 159.74 18.838C159.11 18.838 158.57 18.586 158.156 18.064C157.292 17.038 157.058 15.688 157.058 14.194ZM169.422 19V17.812C168.792 18.082 168.144 18.262 167.46 18.388C168.396 18.1 168.342 17.578 168.342 16.858V11.08C168.828 10.63 169.674 10.252 170.34 10.252C171.996 10.252 172.698 11.674 172.716 13.744V16.192C172.716 17.506 172.842 18.226 171.474 18.55V19H175.344V17.812C174.714 18.082 174.066 18.262 173.382 18.388C174.246 18.154 174.264 17.578 174.264 16.858V13.744C174.264 10.99 173.346 9.712 171.258 9.712C170.25 9.712 169.062 10.216 168.342 10.828V10H165.552V11.188C166.164 10.954 166.776 10.738 167.424 10.612C166.722 11.098 166.794 11.53 166.794 12.016V16.192C166.794 16.57 166.794 16.93 166.776 17.272C166.74 17.974 166.47 18.334 165.552 18.55V19H169.422ZM176.646 12.322C176.646 14.14 178.284 14.716 179.724 15.274C180.84 15.706 181.848 16.174 181.848 17.164C181.848 18.136 180.786 18.586 179.868 18.586C178.446 18.586 177.384 17.524 177.096 16.03H176.646V19.126H177.834C177.474 18.622 177.258 18.28 177.15 17.65C177.888 18.946 178.986 19.288 180.192 19.288C181.722 19.288 183.306 18.46 183.306 16.642C183.306 15.022 181.866 14.41 180.498 13.834C179.238 13.33 178.05 12.862 178.05 11.746C178.05 11.026 178.716 10.378 179.814 10.378C181.38 10.378 182.064 11.35 182.226 12.952H182.676V10H181.488C181.884 10.396 182.046 10.684 182.136 11.242C181.83 10.558 181.434 10.126 180.948 9.964C180.462 9.802 180.048 9.712 179.724 9.712C177.294 9.712 176.646 11.314 176.646 12.322Z" fill="#AAAAAA"/>
</svg>
