<svg width="118" height="20" viewBox="0 0 118 20" fill="none" xmlns="http://www.w3.org/2000/svg">
<path d="M0.88 5.8V6.856C1.424 6.648 1.968 6.456 2.544 6.344C1.92 6.776 1.984 7.16 1.984 7.592V14.504C1.984 15.656 2.096 16.312 0.88 16.6V17H8.912V13.688H8.368C8.368 15.56 7.664 16.312 6.32 16.36L2.576 16.456C3.392 16.264 3.376 15.672 3.376 15.16V8.296C3.376 7.16 3.28 6.392 4.48 6.2V5.8H0.88ZM9.666 9V10.056C10.21 9.848 10.754 9.656 11.33 9.544C10.706 9.976 10.77 10.36 10.77 10.792V14.504C10.77 15.672 10.882 16.312 9.666 16.6V17H13.106V15.944C12.546 16.184 11.97 16.344 11.362 16.456C12.194 16.152 12.146 15.72 12.146 15.096V9H9.666ZM10.498 6.312C10.498 6.792 10.882 7.176 11.362 7.176C11.826 7.176 12.226 6.792 12.226 6.312C12.226 5.848 11.826 5.448 11.362 5.448C10.882 5.448 10.498 5.848 10.498 6.312ZM17.5089 17V15.944C16.9489 16.184 16.3729 16.344 15.7649 16.456C16.5969 16.2 16.5489 15.736 16.5489 15.096V9.96C16.9809 9.56 17.7329 9.224 18.3249 9.224C19.7969 9.224 20.4209 10.488 20.4369 12.328V14.504C20.4369 15.672 20.5489 16.312 19.3329 16.6V17H22.7729V15.944C22.2129 16.184 21.6369 16.344 21.0289 16.456C21.7969 16.248 21.8129 15.736 21.8129 15.096V12.328C21.8129 9.88 20.9969 8.744 19.1409 8.744C18.2449 8.744 17.1889 9.192 16.5489 9.736V9H14.0689V10.056C14.6129 9.848 15.1569 9.656 15.7329 9.544C15.1089 9.976 15.1729 10.36 15.1729 10.792V14.504C15.1729 14.84 15.1729 15.16 15.1569 15.464C15.1249 16.088 14.8849 16.408 14.0689 16.6V17H17.5089ZM23.5141 16.6V17H26.9541V15.944C26.3941 16.184 25.8181 16.328 25.2101 16.392C25.9941 16.28 25.9941 15.688 25.9941 15.096V11.928H26.6341L28.5701 15.496C29.0341 16.28 29.4501 17 30.1541 17H31.6101V16.6C30.4261 16.6 29.8341 15.688 29.3221 14.712L28.2821 12.712C28.0421 12.264 27.8341 11.784 27.5141 11.704L28.6821 10.472C28.8741 10.264 29.1141 10.056 29.3701 9.8C29.8821 9.288 30.2341 9.224 30.7301 9.224V9H28.2021V9.224H29.2901C28.7941 9.352 28.3461 9.832 28.1381 10.072L26.6341 11.704H25.9941V4.92H23.5141V6.024C24.0421 5.752 24.6021 5.576 25.1781 5.464C24.5541 5.896 24.6181 6.28 24.6181 6.712V14.568C24.6181 15.624 24.7301 16.312 23.5141 16.6ZM36.1823 14.12C36.1823 16.392 38.0703 17.256 39.9423 17.256C41.6063 17.256 42.6943 16.584 43.3823 15.672C44.4863 16.648 45.0623 17 46.0703 17H47.2863V16.6C46.1503 16.408 45.6863 16.024 44.8223 15.304L43.8623 14.44C43.9743 13.624 43.7983 13.016 43.5263 12.52C43.3503 12.2 42.9823 11.656 42.3903 11.32C42.8863 11.4 43.2543 11.56 43.6543 11.88V10.92H41.2543V11.32C41.8303 11.32 42.2623 11.4 42.9183 12.248C43.2543 12.68 43.5263 13.272 43.5263 14.104L40.3583 10.84C42.4863 10.12 43.1103 8.904 43.1103 7.784C43.1103 6.52 42.0703 5.544 40.4383 5.544C38.7263 5.544 37.4943 6.52 37.4783 8.056C37.4783 9.08 37.8623 9.896 38.6943 10.984C37.1583 11.64 36.1823 12.728 36.1823 14.12ZM39.0463 11.384L43.0943 15.448C42.3743 16.392 41.6543 16.904 40.1023 16.904C38.4703 16.904 37.3823 15.752 37.3823 14.12C37.3823 12.888 38.0383 12.04 39.0463 11.384ZM40.4063 5.944C41.3823 5.944 41.9903 6.792 41.9903 7.816C41.9903 8.76 41.4623 9.88 39.9903 10.44C39.4303 9.8 38.8223 8.84 38.8223 7.928C38.8223 6.728 39.5263 5.944 40.4063 5.944ZM54.5403 17V15.944C53.9803 16.184 53.3563 16.344 52.6363 16.456C52.9723 16.28 53.1003 15.768 53.2443 15.256L54.6683 11.176H57.0843L58.5243 14.952C58.7643 15.592 58.9083 16.312 57.6763 16.6V17H61.2763V15.944C60.7163 16.184 60.0923 16.344 59.3723 16.456C59.9963 16.184 60.2683 15.848 60.1723 15.48C60.0763 15.112 59.9803 14.824 59.9003 14.6L56.4443 5.8H55.8363L52.6523 14.472C52.1883 15.688 52.1403 16.312 50.9403 16.6V17H54.5403ZM54.7323 10.952L55.8523 7.832H55.8843L57.0363 10.952H54.7323ZM61.4991 16.52V17H64.9391V15.944C64.3791 16.184 63.8031 16.344 63.1951 16.456C64.0111 16.264 63.9951 15.688 63.9951 15.096V10.648C64.3631 10.152 64.9551 9.416 65.6431 9.416C65.8351 9.416 66.0431 9.48 66.2511 9.624C66.1871 10.088 66.5071 10.472 66.9711 10.52C67.4191 10.52 67.7871 10.2 67.7871 9.736C67.7871 9.032 67.2431 8.744 66.6511 8.744C65.5311 8.744 64.4111 9.64 63.9951 10.424V9H61.4991V10.056C62.0431 9.848 62.5871 9.656 63.1631 9.544C62.5391 9.976 62.6031 10.36 62.6031 10.792V14.504C62.6031 15.64 62.7151 16.392 61.4991 16.52ZM68.3079 16.52V17H71.7479V15.944C71.1879 16.184 70.6119 16.344 70.0039 16.456C70.8199 16.264 70.8039 15.688 70.8039 15.096V10.648C71.1719 10.152 71.7639 9.416 72.4519 9.416C72.6439 9.416 72.8519 9.48 73.0599 9.624C72.9959 10.088 73.3159 10.472 73.7799 10.52C74.2279 10.52 74.5959 10.2 74.5959 9.736C74.5959 9.032 74.0519 8.744 73.4599 8.744C72.3399 8.744 71.2199 9.64 70.8039 10.424V9H68.3079V10.056C68.8519 9.848 69.3959 9.656 69.9719 9.544C69.3479 9.976 69.4119 10.36 69.4119 10.792V14.504C69.4119 15.64 69.5239 16.392 68.3079 16.52ZM79.1033 17.256C81.3593 17.256 83.1353 15.288 83.1353 12.808C83.1353 10.488 81.3273 8.744 79.1033 8.744C76.8313 8.744 75.0873 10.664 75.0873 13.192C75.0873 15.56 76.8633 17.256 79.1033 17.256ZM76.7193 12.728C76.7193 11.288 77.3593 9.144 79.1033 9.144C79.9513 9.144 80.5593 9.832 80.9433 10.584C81.3273 11.352 81.5033 12.312 81.5033 13.272C81.5033 14.76 80.9273 16.856 79.1033 16.856C78.5433 16.856 78.0633 16.632 77.6953 16.168C76.9273 15.256 76.7193 14.056 76.7193 12.728ZM83.6172 10.056C84.1612 9.848 84.7052 9.656 85.2812 9.544C84.6572 9.976 84.7692 10.568 84.9772 11.192L86.9772 17H87.5852L89.0892 12.632C89.2812 12.056 89.4732 11.496 89.6652 10.952C89.8572 11.496 90.0492 12.056 90.2412 12.632L91.7612 17H92.4012L94.7052 10.744C94.9932 9.88 95.3452 9.4 96.3212 9.4V9H93.5372V9.4H94.8492C94.2732 9.656 94.1292 10.248 93.9852 10.68L92.9292 13.672C92.7692 14.136 92.6252 14.6 92.4492 15.064C92.2732 14.568 92.0972 14.072 91.9372 13.608L90.3052 9H89.6492L88.2412 13.192C88.0492 13.784 87.8412 14.376 87.6492 14.952C87.4732 14.44 87.3132 13.912 87.1372 13.4L85.6652 9H83.6172V10.056Z" fill="#112E66"/>
<path d="M106.742 6.05L111.317 11L106.667 15.95L107.792 17L113.492 11L107.867 5L106.742 6.05Z" fill="#112E66"/>
</svg>
