<svg width="32" height="32" viewBox="0 0 32 32" fill="none" xmlns="http://www.w3.org/2000/svg">
<path d="M27.954 8.323C27.069 8.712 26.124 8.977 25.129 9.098C26.143 8.487 26.923 7.524 27.292 6.375C26.341 6.93 25.287 7.334 24.165 7.559C23.269 6.6 21.992 6 20.574 6C17.857 6 15.654 8.203 15.654 10.917C15.654 11.307 15.699 11.682 15.781 12.041C11.691 11.848 8.066 9.884 5.64 6.915C5.213 7.637 4.974 8.476 4.974 9.39C4.974 11.1 5.844 12.603 7.162 13.486C6.355 13.46 5.596 13.238 4.934 12.87V12.931C4.934 15.316 6.627 17.305 8.88 17.758C8.467 17.869 8.031 17.929 7.584 17.929C7.27 17.929 6.969 17.899 6.668 17.843C7.299 19.796 9.113 21.22 11.272 21.26C9.592 22.579 7.463 23.365 5.17 23.365C4.78 23.365 4.391 23.342 4 23.298C6.189 24.692 8.768 25.507 11.557 25.507C20.611 25.507 25.556 18.011 25.556 11.521C25.556 11.312 25.556 11.101 25.541 10.891C26.502 10.202 27.341 9.331 28.001 8.343L27.954 8.323Z" fill="#112E66"/>
</svg>
