<svg width="170" height="64" viewBox="0 0 170 64" fill="none" xmlns="http://www.w3.org/2000/svg">
<path d="M0.576 9.082L2.898 7.444V16.354C2.898 17.524 2.574 18.226 1.332 18.55V19H5.526V17.812C4.896 18.082 4.194 18.262 3.384 18.388C4.266 17.974 4.284 17.416 4.284 16.858V6.112H3.834L0.324 8.722L0.576 9.082ZM7.30013 18.136C7.30013 18.694 7.76813 19.18 8.36213 19.18C8.93813 19.18 9.40613 18.694 9.40613 18.136C9.40613 17.542 8.93813 17.074 8.36213 17.074C7.76813 17.074 7.30013 17.542 7.30013 18.136Z" fill="#FFB800"/>
<path d="M19.9863 19V17.812C19.3563 18.082 18.6543 18.262 17.8443 18.388C18.7623 18.172 18.7443 17.524 18.7443 16.858V9.208C18.7443 7.858 18.6363 7.174 19.9863 6.85V6.4H15.9363V7.588C16.5483 7.354 17.1603 7.138 17.8083 7.012C17.1063 7.498 17.1783 7.93 17.1783 8.416V16.192C17.1783 17.488 17.3043 18.226 15.9363 18.55V19H19.9863ZM25.191 19V17.812C24.561 18.082 23.913 18.262 23.229 18.388C24.165 18.1 24.111 17.578 24.111 16.858V11.08C24.597 10.63 25.443 10.252 26.109 10.252C27.765 10.252 28.467 11.674 28.485 13.744V16.192C28.485 17.506 28.611 18.226 27.243 18.55V19H31.113V17.812C30.483 18.082 29.835 18.262 29.151 18.388C30.015 18.154 30.033 17.578 30.033 16.858V13.744C30.033 10.99 29.115 9.712 27.027 9.712C26.019 9.712 24.831 10.216 24.111 10.828V10H21.321V11.188C21.933 10.954 22.545 10.738 23.193 10.612C22.491 11.098 22.563 11.53 22.563 12.016V16.192C22.563 16.57 22.563 16.93 22.545 17.272C22.509 17.974 22.239 18.334 21.321 18.55V19H25.191ZM36.0149 19V17.812C35.3849 18.082 34.7369 18.262 34.0529 18.388C34.9889 18.1 34.9349 17.578 34.9349 16.858V11.08C35.4209 10.63 36.2669 10.252 36.9329 10.252C38.5889 10.252 39.2909 11.674 39.3089 13.744V16.192C39.3089 17.506 39.4349 18.226 38.0669 18.55V19H41.9369V17.812C41.3069 18.082 40.6589 18.262 39.9749 18.388C40.8389 18.154 40.8569 17.578 40.8569 16.858V13.744C40.8569 10.99 39.9389 9.712 37.8509 9.712C36.8429 9.712 35.6549 10.216 34.9349 10.828V10H32.1449V11.188C32.7569 10.954 33.3689 10.738 34.0169 10.612C33.3149 11.098 33.3869 11.53 33.3869 12.016V16.192C33.3869 16.57 33.3869 16.93 33.3689 17.272C33.3329 17.974 33.0629 18.334 32.1449 18.55V19H36.0149ZM47.5588 19.288C50.0968 19.288 52.0948 17.074 52.0948 14.284C52.0948 11.674 50.0608 9.712 47.5588 9.712C45.0028 9.712 43.0408 11.872 43.0408 14.716C43.0408 17.38 45.0388 19.288 47.5588 19.288ZM44.8768 14.194C44.8768 12.574 45.5968 10.162 47.5588 10.162C48.5128 10.162 49.1968 10.936 49.6288 11.782C50.0608 12.646 50.2588 13.726 50.2588 14.806C50.2588 16.48 49.6108 18.838 47.5588 18.838C46.9288 18.838 46.3888 18.586 45.9748 18.064C45.1108 17.038 44.8768 15.688 44.8768 14.194ZM52.743 11.188C53.355 10.954 53.967 10.738 54.615 10.612C53.895 11.044 53.643 11.764 54.273 13.186L56.829 19H57.549L59.889 12.97C60.555 11.296 60.771 10.576 61.635 10.45V10H58.791V10.45H60.447C59.799 10.666 59.619 11.35 59.403 11.926L57.981 15.814C57.837 16.192 57.693 16.624 57.567 16.984H57.549L55.641 12.538L54.615 10H52.743V11.188ZM61.9611 17.146C61.9611 18.352 62.8431 19.288 64.6611 19.288C65.7231 19.288 66.6771 18.784 67.4511 18.01V19H70.1691V17.812C69.3951 18.154 68.6751 18.352 68.0451 18.388C68.9631 18.172 68.9991 17.542 68.9991 16.876V13.042C69.0171 10.864 67.9191 9.676 65.7231 9.676C65.0211 9.676 64.4631 9.802 64.0491 9.982C63.1851 10.36 62.5011 11.062 62.5011 11.872C62.5011 12.286 62.7711 12.646 63.2571 12.7C63.6891 12.7 64.0311 12.448 64.0851 11.998C64.1031 11.782 64.0491 11.512 63.8511 11.314C64.1931 10.63 64.9671 10.198 65.7231 10.198C67.2891 10.198 67.4511 11.746 67.4511 12.862V13.978C65.5791 13.978 61.9611 14.68 61.9611 17.146ZM63.6711 16.93C63.6351 15.148 66.0111 14.338 67.4511 14.23V17.2C66.7311 17.866 66.0651 18.262 65.0751 18.262C64.3371 18.262 63.7251 17.812 63.6711 16.93ZM72.5597 6.022C71.8577 6.508 71.9297 6.94 71.9297 7.426V10H70.6877V10.252H71.9297V15.994C71.8757 17.524 72.2177 18.028 72.6857 18.514C73.1897 19.036 73.8197 19.288 74.5397 19.288C75.6737 19.288 76.5377 18.532 76.9337 17.488L76.5737 17.218C76.3217 17.956 75.7097 18.55 74.8997 18.55C74.4497 18.55 74.1077 18.388 73.8737 18.1C73.4057 17.524 73.4957 16.822 73.5137 15.742V10.252H76.5377V10H73.5137V5.41H70.6877V6.598C71.2997 6.364 71.9117 6.148 72.5597 6.022ZM77.475 10V11.188C78.087 10.954 78.699 10.738 79.347 10.612C78.645 11.098 78.717 11.53 78.717 12.016V16.192C78.717 17.506 78.843 18.226 77.475 18.55V19H81.345V17.812C80.715 18.082 80.067 18.262 79.383 18.388C80.319 18.046 80.265 17.56 80.265 16.858V10H77.475ZM78.411 6.976C78.411 7.516 78.843 7.948 79.383 7.948C79.905 7.948 80.355 7.516 80.355 6.976C80.355 6.454 79.905 6.004 79.383 6.004C78.843 6.004 78.411 6.454 78.411 6.976ZM87.0182 19.288C89.5562 19.288 91.5542 17.074 91.5542 14.284C91.5542 11.674 89.5202 9.712 87.0182 9.712C84.4622 9.712 82.5002 11.872 82.5002 14.716C82.5002 17.38 84.4982 19.288 87.0182 19.288ZM84.3362 14.194C84.3362 12.574 85.0562 10.162 87.0182 10.162C87.9722 10.162 88.6562 10.936 89.0882 11.782C89.5202 12.646 89.7182 13.726 89.7182 14.806C89.7182 16.48 89.0702 18.838 87.0182 18.838C86.3882 18.838 85.8482 18.586 85.4342 18.064C84.5702 17.038 84.3362 15.688 84.3362 14.194ZM96.7002 19V17.812C96.0702 18.082 95.4222 18.262 94.7382 18.388C95.6742 18.1 95.6202 17.578 95.6202 16.858V11.08C96.1062 10.63 96.9522 10.252 97.6182 10.252C99.2742 10.252 99.9762 11.674 99.9942 13.744V16.192C99.9942 17.506 100.12 18.226 98.7522 18.55V19H102.622V17.812C101.992 18.082 101.344 18.262 100.66 18.388C101.524 18.154 101.542 17.578 101.542 16.858V13.744C101.542 10.99 100.624 9.712 98.5362 9.712C97.5282 9.712 96.3402 10.216 95.6202 10.828V10H92.8302V11.188C93.4422 10.954 94.0542 10.738 94.7022 10.612C94.0002 11.098 94.0722 11.53 94.0722 12.016V16.192C94.0722 16.57 94.0722 16.93 94.0542 17.272C94.0182 17.974 93.7482 18.334 92.8302 18.55V19H96.7002ZM108.527 18.55V19H112.577V17.812C111.947 18.082 111.245 18.262 110.435 18.388C111.353 18.172 111.335 17.524 111.335 16.858V12.448H112.019C112.415 12.466 112.793 12.466 113.117 12.466C114.269 12.466 115.475 12.412 116.519 11.872C117.509 11.368 118.013 10.36 117.977 9.424C117.869 6.724 114.683 6.4 112.577 6.4H108.527V7.588C109.139 7.354 109.751 7.138 110.399 7.012C109.697 7.498 109.769 7.93 109.769 8.416V16.192C109.769 17.488 109.895 18.226 108.527 18.55ZM113.261 6.796C114.107 6.796 114.899 7.03 115.439 7.372C116.123 7.804 116.429 8.272 116.429 9.424C116.429 10.558 115.727 11.692 114.593 12.016C114.143 12.142 113.459 12.196 112.505 12.196H111.335V9.208C111.335 7.498 111.371 6.796 113.261 6.796ZM118.762 17.146C118.762 18.352 119.644 19.288 121.462 19.288C122.524 19.288 123.478 18.784 124.252 18.01V19H126.97V17.812C126.196 18.154 125.476 18.352 124.846 18.388C125.764 18.172 125.8 17.542 125.8 16.876V13.042C125.818 10.864 124.72 9.676 122.524 9.676C121.822 9.676 121.264 9.802 120.85 9.982C119.986 10.36 119.302 11.062 119.302 11.872C119.302 12.286 119.572 12.646 120.058 12.7C120.49 12.7 120.832 12.448 120.886 11.998C120.904 11.782 120.85 11.512 120.652 11.314C120.994 10.63 121.768 10.198 122.524 10.198C124.09 10.198 124.252 11.746 124.252 12.862V13.978C122.38 13.978 118.762 14.68 118.762 17.146ZM120.472 16.93C120.436 15.148 122.812 14.338 124.252 14.23V17.2C123.532 17.866 122.866 18.262 121.876 18.262C121.138 18.262 120.526 17.812 120.472 16.93ZM127.881 18.46V19H131.751V17.812C131.121 18.082 130.473 18.262 129.789 18.388C130.707 18.172 130.689 17.524 130.689 16.858V11.854C131.103 11.296 131.769 10.468 132.543 10.468C132.759 10.468 132.993 10.54 133.227 10.702C133.155 11.224 133.515 11.656 134.037 11.71C134.541 11.71 134.955 11.35 134.955 10.828C134.955 10.036 134.343 9.712 133.677 9.712C132.417 9.712 131.157 10.72 130.689 11.602V10H127.881V11.188C128.493 10.954 129.105 10.738 129.753 10.612C129.051 11.098 129.123 11.53 129.123 12.016V16.192C129.123 17.47 129.249 18.316 127.881 18.46ZM137.266 6.022C136.564 6.508 136.636 6.94 136.636 7.426V10H135.394V10.252H136.636V15.994C136.582 17.524 136.924 18.028 137.392 18.514C137.896 19.036 138.526 19.288 139.246 19.288C140.38 19.288 141.244 18.532 141.64 17.488L141.28 17.218C141.028 17.956 140.416 18.55 139.606 18.55C139.156 18.55 138.814 18.388 138.58 18.1C138.112 17.524 138.202 16.822 138.22 15.742V10.252H141.244V10H138.22V5.41H135.394V6.598C136.006 6.364 136.618 6.148 137.266 6.022ZM146.069 19V17.812C145.439 18.082 144.791 18.262 144.107 18.388C145.043 18.1 144.989 17.578 144.989 16.858V11.08C145.475 10.63 146.321 10.252 146.987 10.252C148.643 10.252 149.345 11.674 149.363 13.744V16.192C149.363 17.506 149.489 18.226 148.121 18.55V19H151.991V17.812C151.361 18.082 150.713 18.262 150.029 18.388C150.893 18.154 150.911 17.578 150.911 16.858V13.744C150.911 10.99 149.993 9.712 147.905 9.712C146.897 9.712 145.709 10.216 144.989 10.828V10H142.199V11.188C142.811 10.954 143.423 10.738 144.071 10.612C143.369 11.098 143.441 11.53 143.441 12.016V16.192C143.441 16.57 143.441 16.93 143.423 17.272C143.387 17.974 143.117 18.334 142.199 18.55V19H146.069ZM153.113 14.518C153.113 17.434 155.021 19.288 157.505 19.288C159.179 19.288 160.349 18.478 161.411 17.236L161.069 16.948C160.259 17.65 159.107 18.37 157.937 18.37C155.831 18.37 154.697 16.462 154.913 13.294H161.303C161.303 12.484 160.907 11.332 160.223 10.684C159.557 10.036 158.657 9.712 157.649 9.712C154.949 9.712 153.113 11.998 153.113 14.518ZM157.667 10.162C158.837 10.162 159.521 11.062 159.773 12.106C159.917 12.682 160.223 12.988 160.709 13.042H154.949C155.327 11.188 156.281 10.162 157.667 10.162ZM162.581 18.46V19H166.451V17.812C165.821 18.082 165.173 18.262 164.489 18.388C165.407 18.172 165.389 17.524 165.389 16.858V11.854C165.803 11.296 166.469 10.468 167.243 10.468C167.459 10.468 167.693 10.54 167.927 10.702C167.855 11.224 168.215 11.656 168.737 11.71C169.241 11.71 169.655 11.35 169.655 10.828C169.655 10.036 169.043 9.712 168.377 9.712C167.117 9.712 165.857 10.72 165.389 11.602V10H162.581V11.188C163.193 10.954 163.805 10.738 164.453 10.612C163.751 11.098 163.823 11.53 163.823 12.016V16.192C163.823 17.47 163.949 18.316 162.581 18.46Z" fill="white"/>
<rect y="59" width="170" height="5" fill="#FFB800"/>
</svg>
