<svg width="160" height="48" viewBox="0 0 160 48" fill="none" xmlns="http://www.w3.org/2000/svg">
<path d="M0 0H160V48H0V0Z" fill="#112E66"/>
<path d="M38.4925 28.6V29H43.1645C45.3245 29 46.9405 27.816 46.9405 25.864C46.9405 23.768 45.2125 23.048 43.3725 23.048C45.1485 22.6 46.0285 21.56 46.0285 20.504C46.0765 18.6 44.6045 17.8 42.1245 17.8H38.4925V18.856C39.0365 18.648 39.5805 18.456 40.1565 18.344C39.5325 18.776 39.5965 19.128 39.5965 19.704V26.424C39.5965 27.672 39.7085 28.312 38.4925 28.6ZM40.9885 27.112V23.176H42.5725C43.0685 23.176 43.5325 23.288 43.9645 23.528C44.8445 24.008 45.3885 24.664 45.3885 25.96C45.3885 27.56 44.2845 28.392 42.6365 28.392L40.2845 28.456C40.9725 28.264 40.9885 27.688 40.9885 27.112ZM42.0925 18.2C42.2045 18.184 42.3325 18.168 42.4605 18.168C42.7325 18.168 43.0525 18.216 43.3885 18.328C44.3645 18.648 44.7965 19.352 44.8125 20.504C44.8445 21.608 44.1725 22.952 42.4285 22.952H40.9885V20.296C40.9885 19.16 40.8925 18.392 42.0925 18.2ZM49.3762 21.544C48.6722 21.976 48.7522 22.696 48.7522 23.08V25.768C48.7522 28.408 49.6482 29.256 51.3762 29.256C52.3202 29.256 53.3122 28.744 53.9362 28.088V29H56.3842V27.944C55.8403 28.184 55.2162 28.344 54.4962 28.456C55.3442 28.216 55.2962 27.768 55.2962 26.888V21H52.8322V22.088C53.3602 21.832 53.9202 21.656 54.4962 21.544C53.8722 21.816 53.9362 22.216 53.9362 23.256V27.864C53.5842 28.168 52.7362 28.616 51.9522 28.616C51.9042 28.616 51.8402 28.6 51.7762 28.6C50.5122 28.6 50.1602 27.56 50.1602 25.72V21H47.7122V22.056C48.2562 21.848 48.8002 21.656 49.3762 21.544ZM58.6831 17.464C58.0591 17.896 58.1231 18.28 58.1231 18.712V21H57.0191V21.224H58.1231V26.328C58.0751 27.688 58.3791 28.136 58.7951 28.568C59.2431 29.032 59.8031 29.256 60.4431 29.256C61.4511 29.256 62.2191 28.584 62.5711 27.656L62.2511 27.416C62.0271 28.072 61.4831 28.6 60.7631 28.6C60.3631 28.6 60.0591 28.456 59.8511 28.2C59.4351 27.688 59.5151 27.064 59.5311 26.104V21.224H62.2191V21H59.5311V16.92H57.0191V17.976C57.5631 17.768 58.1071 17.576 58.6831 17.464ZM64.6325 17.464C64.0085 17.896 64.0725 18.28 64.0725 18.712V21H62.9685V21.224H64.0725V26.328C64.0245 27.688 64.3285 28.136 64.7445 28.568C65.1925 29.032 65.7525 29.256 66.3925 29.256C67.4005 29.256 68.1685 28.584 68.5205 27.656L68.2005 27.416C67.9765 28.072 67.4325 28.6 66.7125 28.6C66.3125 28.6 66.0085 28.456 65.8005 28.2C65.3845 27.688 65.4645 27.064 65.4805 26.104V21.224H68.1685V21H65.4805V16.92H62.9685V17.976C63.5125 17.768 64.0565 17.576 64.6325 17.464ZM73.0976 29.256C75.3536 29.256 77.1296 27.288 77.1296 24.808C77.1296 22.488 75.3216 20.744 73.0976 20.744C70.8256 20.744 69.0816 22.664 69.0816 25.192C69.0816 27.56 70.8576 29.256 73.0976 29.256ZM70.7136 24.728C70.7136 23.288 71.3536 21.144 73.0976 21.144C73.9456 21.144 74.5536 21.832 74.9376 22.584C75.3216 23.352 75.4976 24.312 75.4976 25.272C75.4976 26.76 74.9216 28.856 73.0976 28.856C72.5376 28.856 72.0576 28.632 71.6896 28.168C70.9216 27.256 70.7136 26.056 70.7136 24.728ZM81.7039 29V27.944C81.1439 28.184 80.5679 28.344 79.9599 28.456C80.7919 28.2 80.7439 27.736 80.7439 27.096V21.96C81.1759 21.56 81.9279 21.224 82.5199 21.224C83.9919 21.224 84.6159 22.488 84.6319 24.328V26.504C84.6319 27.672 84.7439 28.312 83.5279 28.6V29H86.9679V27.944C86.4079 28.184 85.8319 28.344 85.2239 28.456C85.9919 28.248 86.0079 27.736 86.0079 27.096V24.328C86.0079 21.88 85.1919 20.744 83.3359 20.744C82.4399 20.744 81.3839 21.192 80.7439 21.736V21H78.2639V22.056C78.8079 21.848 79.3519 21.656 79.9279 21.544C79.3039 21.976 79.3679 22.36 79.3679 22.792V26.504C79.3679 26.84 79.3679 27.16 79.3519 27.464C79.3199 28.088 79.0799 28.408 78.2639 28.6V29H81.7039ZM91.6883 17.8V20.6H92.1843C92.2483 18.728 93.0483 18.312 94.3923 18.2H95.7203C95.0003 18.584 94.9203 18.872 94.9203 19.656V26.504C94.9203 27.64 95.0323 28.312 93.8323 28.6V29H97.4323V27.944C96.8723 28.184 96.2483 28.344 95.5283 28.456C96.3443 28.264 96.3283 27.688 96.3283 27.096V19.752C96.3443 19.288 96.3443 18.984 96.5523 18.68C96.7603 18.376 97.1283 18.2 97.4803 18.2H97.5923C98.8883 18.2 99.7523 18.792 99.7523 20.6H100.28V17.8H91.6883ZM100.38 25.016C100.38 27.608 102.076 29.256 104.284 29.256C105.772 29.256 106.812 28.536 107.756 27.432L107.452 27.176C106.732 27.8 105.708 28.44 104.668 28.44C102.796 28.44 101.788 26.744 101.98 23.928H107.66C107.66 23.208 107.308 22.184 106.7 21.608C106.108 21.032 105.308 20.744 104.412 20.744C102.012 20.744 100.38 22.776 100.38 25.016ZM104.428 21.144C105.468 21.144 106.076 21.944 106.3 22.872C106.428 23.384 106.7 23.656 107.132 23.704H102.012C102.348 22.056 103.196 21.144 104.428 21.144ZM108.493 28.6V29H111.181V27.944C110.749 28.248 110.285 28.408 109.757 28.472C110.061 28.344 110.365 27.928 110.685 27.496L112.029 25.656L113.709 27.736C114.157 28.296 113.837 28.6 113.325 28.6V29H116.413V27.944C115.981 28.232 115.741 28.344 115.229 28.456C115.469 28.072 115.229 27.72 114.989 27.4L112.781 24.664L114.013 23.192C114.301 22.84 114.541 22.552 114.749 22.328C115.149 21.912 115.437 21.544 116.077 21.4V21H113.453V21.4H114.989C114.493 21.544 114.157 22.056 113.837 22.44L112.381 24.2L110.061 21H108.493V22.056C109.037 21.848 109.581 21.656 110.157 21.544C109.533 21.816 109.501 22.312 110.029 23.016C110.317 23.4 111.181 24.552 111.613 25.144L110.013 27.224C109.421 27.992 109.149 28.424 108.493 28.6ZM118.434 17.464C117.81 17.896 117.874 18.28 117.874 18.712V21H116.77V21.224H117.874V26.328C117.826 27.688 118.13 28.136 118.546 28.568C118.994 29.032 119.554 29.256 120.194 29.256C121.202 29.256 121.97 28.584 122.322 27.656L122.002 27.416C121.778 28.072 121.234 28.6 120.514 28.6C120.114 28.6 119.81 28.456 119.602 28.2C119.186 27.688 119.266 27.064 119.282 26.104V21.224H121.97V21H119.282V16.92H116.77V17.976C117.314 17.768 117.858 17.576 118.434 17.464Z" fill="white"/>
</svg>
