<svg width="32" height="32" viewBox="0 0 32 32" fill="none" xmlns="http://www.w3.org/2000/svg">
<path d="M24.447 24.452H20.893V18.883C20.893 17.555 20.866 15.846 19.041 15.846C17.188 15.846 16.905 17.291 16.905 18.785V24.452H13.351V13H16.765V14.561H16.811C17.288 13.661 18.448 12.711 20.181 12.711C23.782 12.711 24.448 15.081 24.448 18.166V24.452H24.447ZM9.337 11.433C8.193 11.433 7.274 10.507 7.274 9.368C7.274 8.23 8.194 7.305 9.337 7.305C10.477 7.305 11.401 8.23 11.401 9.368C11.401 10.507 10.476 11.433 9.337 11.433ZM11.119 24.452H7.555V13H11.119V24.452ZM26.225 4H5.771C4.792 4 4 4.774 4 5.729V26.271C4 27.227 4.792 28 5.771 28H26.222C27.2 28 28 27.227 28 26.271V5.729C28 4.774 27.2 4 26.222 4H26.225Z" fill="#112E66"/>
</svg>
